<svg width="25" height="19" viewBox="0 0 25 19" fill="none" xmlns="http://www.w3.org/2000/svg">
<path d="M11.5673 1.84226L9.94678 0.536133C3.84594 3.89476 0.986179 7.71985 0.223574 12.0114C-0.34838 15.5566 1.0815 18.3555 4.70388 18.3555C7.27767 18.3555 9.75613 16.6762 10.3281 13.8773C10.8047 10.612 8.8982 8.6528 6.51506 8.18633C7.46832 5.0143 11.472 1.84226 11.5673 1.84226ZM19.7653 7.99974C20.8139 4.92101 24.6269 1.84226 24.7223 1.84226L23.1017 0.536133C17.0009 3.89476 14.1411 7.71985 13.3785 12.0114C12.8066 15.5566 14.2364 18.3555 17.8588 18.3555C20.4326 18.3555 22.9111 16.6762 23.3877 13.8773C23.9596 10.612 22.1485 8.46622 19.7653 7.99974Z" fill="url(#paint0_radial_339_88)"/>
<defs>
<radialGradient id="paint0_radial_339_88" cx="0" cy="0" r="1" gradientUnits="userSpaceOnUse" gradientTransform="translate(7.13604 3.59088) rotate(60.2421) scale(17.0074 20.7422)">
<stop stop-color="#FFA800"/>
<stop offset="1" stop-color="#FF4D00"/>
</radialGradient>
</defs>
</svg>
