<svg width="1395" height="745" viewBox="0 0 1395 745" fill="none" xmlns="http://www.w3.org/2000/svg">
<path d="M163.203 336.282C164.503 333.782 177.503 314.282 178.803 314.682C179.603 314.982 190.303 335.882 190.303 336.782C190.203 337.082 170.003 336.882 163.203 336.282ZM588.503 664.682C588.403 664.582 581.803 656.482 578.803 652.182C578.603 651.882 578.303 651.182 578.103 650.682C577.903 650.282 577.703 649.982 577.403 649.882C577.103 649.782 576.803 649.882 576.603 650.182L566.103 664.882C565.903 665.082 565.903 665.382 565.903 665.782C565.903 666.082 566.103 666.482 566.303 666.682C566.403 666.782 568.103 668.882 569.103 669.782C572.203 672.882 577.903 680.282 578.003 680.382C578.203 680.682 578.503 680.782 578.803 680.782C579.103 680.782 579.303 680.582 579.403 680.282C579.403 680.282 580.603 677.482 581.403 676.182C582.503 674.282 583.703 672.482 584.903 670.682C585.803 669.282 586.203 668.982 586.603 668.682C587.103 668.282 587.603 667.982 588.703 666.282C589.003 665.982 588.903 665.182 588.503 664.682ZM719.603 132.782C720.203 132.982 720.903 132.582 721.003 131.982C721.003 131.882 721.003 131.782 721.003 131.582C721.203 130.182 723.803 118.982 725.503 112.082C725.603 111.782 725.503 111.482 725.303 111.282C725.103 110.982 724.803 110.882 724.503 110.782C724.303 110.782 719.803 109.682 718.803 109.482L705.403 106.782C705.103 106.682 704.703 106.782 704.503 106.982C704.303 107.182 704.103 107.382 704.003 107.582V107.682C703.203 114.182 701.803 120.782 700.103 127.082C700.003 127.382 700.103 127.682 700.303 127.982C700.503 128.282 700.803 128.382 701.103 128.482C706.903 129.782 713.803 131.382 719.603 132.782ZM720.603 130.982C720.503 130.882 720.403 130.782 720.203 130.782C720.403 130.782 720.503 130.882 720.603 130.982Z" fill="#FB9D26"/>
<path d="M1094.6 687.682C1097.1 686.482 1119.4 679.082 1120.2 680.182C1120.7 680.882 1116.3 703.982 1115.6 704.682C1115.4 704.982 1099.6 692.382 1094.6 687.682ZM1218.4 181.982C1218.4 181.882 1213.5 172.582 1211.4 167.782C1211.3 167.482 1211.1 166.682 1211 166.182C1210.9 165.782 1210.7 165.482 1210.4 165.282C1210.1 165.082 1209.8 165.182 1209.6 165.382L1196.5 177.682C1196.3 177.882 1196.2 178.182 1196.1 178.482C1196.1 178.782 1196.1 179.182 1196.3 179.482C1196.4 179.582 1197.7 181.982 1198.4 183.082C1200.8 186.782 1204.9 195.182 1204.9 195.282C1205.1 195.582 1205.3 195.782 1205.6 195.882C1205.9 195.882 1206.1 195.782 1206.3 195.582C1206.3 195.582 1208.1 193.082 1209 191.982C1210.5 190.382 1212 188.782 1213.6 187.282C1214.8 186.082 1215.2 185.882 1215.7 185.682C1216.2 185.382 1216.8 185.182 1218.2 183.782C1218.6 183.282 1218.7 182.482 1218.4 181.982ZM25.1 723.182C25.1 722.482 24.6 721.982 23.9 721.982C23.8 721.982 23.6 721.982 23.5 722.082C21.9 722.282 9.2 722.182 1.3 722.082C1 722.082 0.7 722.182 0.4 722.482C0.2 722.682 0 722.982 0 723.382C0 723.582 -9.68575e-08 728.282 0.0999999 729.282L0.5 742.882C0.5 743.182 0.7 743.482 0.9 743.782C1.1 743.982 1.4 744.082 1.7 744.082H1.8C9.1 743.382 16.5 743.182 23.8 743.482C24.1 743.482 24.5 743.382 24.7 743.182C24.9 742.982 25.1 742.582 25.1 742.282C25 736.182 25 729.082 25.1 723.182Z" fill="#FA8730"/>
<path d="M691.699 425.582C690.199 425.582 688.899 424.782 688.199 423.282C687.399 421.382 688.199 419.082 690.099 418.282C693.799 416.682 696.899 413.582 698.499 409.782C700.099 405.982 700.199 401.682 698.699 397.882C698.399 396.982 697.899 396.082 697.499 395.082C696.699 393.382 695.699 391.382 695.199 389.182C694.299 385.082 694.999 380.582 697.199 376.382C698.899 373.282 701.299 370.282 704.799 367.282C706.399 365.882 708.799 366.082 710.099 367.682C711.499 369.282 711.299 371.682 709.699 372.982C706.899 375.482 704.999 377.682 703.799 379.982C702.399 382.582 701.899 385.282 702.499 387.582C702.799 388.982 703.499 390.382 704.199 391.882C704.699 392.982 705.199 394.082 705.699 395.182C707.799 400.782 707.699 407.182 705.399 412.782C703.099 418.282 698.599 422.882 693.099 425.282C692.699 425.482 692.199 425.582 691.699 425.582ZM732.499 374.282C733.999 374.082 735.499 374.782 736.299 376.182C737.399 377.982 736.699 380.382 734.899 381.482C731.199 383.582 728.499 387.082 727.299 390.982C726.099 394.982 726.499 399.382 728.399 403.082C728.799 403.982 729.399 404.782 729.999 405.782C730.999 407.482 732.199 409.282 732.999 411.482C734.399 415.482 734.199 420.182 732.399 424.682C730.999 428.082 728.899 431.282 725.599 434.782C724.099 436.382 721.699 436.482 720.099 434.982C718.499 433.582 718.399 431.082 719.899 429.582C722.499 426.782 724.199 424.282 725.199 421.882C726.299 419.082 726.499 416.282 725.699 413.982C725.199 412.682 724.399 411.282 723.499 409.882C722.899 408.882 722.199 407.782 721.599 406.682C718.799 401.282 718.199 394.782 719.899 388.882C721.699 382.982 725.699 377.882 731.099 374.882C731.499 374.482 731.999 374.282 732.499 374.282ZM253.399 543.782C259.099 550.582 262.399 559.482 262.799 566.182C263.299 573.482 260.399 582.582 252.599 586.582C249.599 588.082 245.899 588.782 241.399 588.782C233.499 588.682 228.499 585.882 225.999 580.382C223.899 575.682 223.699 568.982 227.799 564.482C230.999 560.982 235.599 560.382 238.999 562.882C240.199 563.782 240.499 565.582 239.599 566.782C238.699 567.982 236.899 568.282 235.699 567.382C233.899 566.082 232.099 567.982 231.899 568.182C229.499 570.782 229.799 575.182 231.099 578.082C232.599 581.482 235.799 583.082 241.499 583.182C245.099 583.182 247.899 582.682 250.099 581.582C254.799 579.182 257.799 572.982 257.299 566.582C256.799 559.282 251.999 548.382 244.299 542.682C240.099 539.582 235.799 538.582 231.399 539.582C228.299 540.282 225.199 541.982 221.699 544.582C215.099 549.682 209.999 556.382 207.499 563.582C204.799 571.282 205.399 579.382 209.399 587.482C210.099 588.882 209.499 590.582 208.099 591.182C206.699 591.882 204.999 591.282 204.399 589.882C199.799 580.482 198.999 570.682 202.199 561.682C205.099 553.482 210.799 545.782 218.299 540.082C222.399 536.982 226.299 534.982 230.099 534.082C236.099 532.682 242.099 534.082 247.599 538.082C249.699 539.782 251.699 541.682 253.399 543.782Z" fill="white"/>
<path d="M1005.8 113.882C1009.72 113.882 1012.9 110.703 1012.9 106.782C1012.9 102.861 1009.72 99.6821 1005.8 99.6821C1001.88 99.6821 998.703 102.861 998.703 106.782C998.703 110.703 1001.88 113.882 1005.8 113.882Z" fill="white"/>
<path d="M1016.4 92.0821C1020.33 92.0821 1023.5 88.9033 1023.5 84.9821C1023.5 81.0609 1020.33 77.8821 1016.4 77.8821C1012.48 77.8821 1009.3 81.0609 1009.3 84.9821C1009.3 88.9033 1012.48 92.0821 1016.4 92.0821Z" fill="white"/>
<path d="M1029.4 108.882C1033.33 108.882 1036.5 105.703 1036.5 101.782C1036.5 97.8609 1033.33 94.6821 1029.4 94.6821C1025.48 94.6821 1022.3 97.8609 1022.3 101.782C1022.3 105.703 1025.48 108.882 1029.4 108.882Z" fill="white"/>
<path d="M1500.8 250.082C1496 244.682 1491.1 239.282 1486 233.882C1491.6 228.282 1497.1 222.382 1501.6 215.682C1502.8 213.982 1502.3 211.582 1500.6 210.482C1498.9 209.282 1496.5 209.782 1495.4 211.482C1491.2 217.682 1486.3 223.082 1480.9 228.382C1476.1 223.382 1471.2 218.382 1466.2 213.482C1464.7 211.982 1462.3 211.982 1460.9 213.482C1459.4 214.982 1459.4 217.382 1460.9 218.782C1465.8 223.582 1470.6 228.582 1475.4 233.582C1474.3 234.682 1473.1 235.782 1471.9 236.782C1467.8 240.582 1463.5 244.582 1459.5 248.782C1458.1 250.282 1458.1 252.582 1459.5 254.082C1461 255.482 1463.4 255.482 1464.8 253.982C1468.7 249.982 1472.9 246.082 1476.9 242.282C1478.1 241.182 1479.2 240.082 1480.4 238.982C1485.3 244.282 1490.2 249.582 1495 254.882C1495.1 254.982 1495.1 254.982 1495.2 255.082C1496.6 256.482 1498.9 256.582 1500.4 255.282C1502.1 254.082 1502.2 251.682 1500.8 250.082ZM319.7 201.482L319.3 198.882C317.8 187.782 317.1 175.682 317 161.882C317 156.382 317 150.382 317.2 143.382C317.2 142.682 317.2 141.882 317.2 141.082C317.2 136.082 317.2 129.882 321.1 127.582C323.3 126.282 326.2 126.582 329.6 128.482C335.3 131.582 342.8 137.182 347.1 143.382C352.6 151.182 354.4 160.282 352.1 169.082C348.9 181.382 337.1 200.082 322.1 201.182L319.7 201.482ZM324.2 132.082C324 132.082 323.9 132.082 323.8 132.182C323.7 132.282 323.1 132.682 322.7 134.882C322.4 136.782 322.4 139.082 322.4 141.182C322.4 141.982 322.4 142.882 322.4 143.582C322.2 150.482 322.2 156.382 322.2 161.882C322.3 174.382 322.9 185.382 324.2 195.582C335.2 192.882 344.6 177.482 347.2 167.782C349.1 160.582 347.6 152.982 343 146.482C339.1 140.982 332.1 135.882 327.1 133.182C325.7 132.382 324.7 132.082 324.2 132.082ZM508.4 13.6821C508.3 13.6821 508.2 13.6821 508 13.5821C505.6 12.8821 504 12.6821 501.3 12.8821C500.6 12.8821 500 12.3821 499.9 11.6821C499.9 10.9821 500.4 10.3821 501.1 10.2821C504.2 10.0821 506 10.2821 508.7 11.0821C509.4 11.2821 509.8 11.9821 509.6 12.6821C509.4 13.2821 508.9 13.6821 508.4 13.6821ZM498.2 23.3821C497.7 23.3821 497.2 23.0821 497 22.5821C496.2 20.4821 495.8 18.2821 495.7 15.9821C495.7 15.2821 496.2 14.6821 496.9 14.6821C497.6 14.6821 498.2 15.1821 498.2 15.8821C498.3 17.8821 498.7 19.7821 499.3 21.6821C499.5 22.3821 499.2 23.0821 498.5 23.2821C498.5 23.3821 498.3 23.3821 498.2 23.3821ZM486.2 17.2821C485.8 17.2821 485.4 17.0821 485.2 16.7821C484.8 16.1821 484.9 15.3821 485.4 14.9821C487.2 13.5821 489.1 12.3821 491.2 11.3821C491.8 11.0821 492.6 11.3821 492.9 11.9821C493.2 12.5821 492.9 13.3821 492.3 13.6821C490.4 14.5821 488.6 15.6821 487 16.9821C486.8 17.1821 486.5 17.2821 486.2 17.2821ZM492.6 8.18213C492.1 8.18213 491.7 7.88213 491.4 7.48213C490.9 6.48213 490.2 5.58213 489 4.08213C488.7 3.68213 488.3 3.18213 487.9 2.68213C487.5 2.08213 487.6 1.28213 488.1 0.882133C488.7 0.482133 489.5 0.582134 489.9 1.08213C490.3 1.58213 490.7 2.08213 491 2.48213C492.3 4.08213 493.1 5.08213 493.7 6.38213C494 6.98213 493.7 7.78213 493.1 8.08213C493 8.18213 492.8 8.18213 492.6 8.18213ZM498.8 7.88213C498.5 7.88213 498.3 7.78213 498 7.68213C497.4 7.28213 497.3 6.48213 497.7 5.88213C498.9 4.18213 500 2.48213 501 0.682132C501.3 0.0821321 502.1 -0.217868 502.7 0.182132C503.3 0.482132 503.6 1.28213 503.2 1.88213C502.2 3.78213 501 5.68213 499.7 7.48213C499.5 7.68213 499.2 7.88213 498.8 7.88213ZM1021.4 335.682C1021.3 335.682 1021.2 335.682 1021 335.582C1018.6 334.882 1017 334.682 1014.3 334.882C1013.6 334.882 1013 334.382 1012.9 333.682C1012.9 332.982 1013.4 332.382 1014.1 332.282C1017.2 332.082 1019 332.282 1021.7 333.082C1022.4 333.282 1022.8 333.982 1022.6 334.682C1022.4 335.282 1021.9 335.682 1021.4 335.682ZM1011.2 345.382C1010.7 345.382 1010.2 345.082 1010 344.582C1009.2 342.482 1008.8 340.282 1008.7 337.982C1008.7 337.282 1009.2 336.682 1009.9 336.682C1010.6 336.682 1011.2 337.182 1011.2 337.882C1011.3 339.882 1011.7 341.782 1012.3 343.682C1012.5 344.382 1012.2 345.082 1011.5 345.282C1011.5 345.382 1011.3 345.382 1011.2 345.382ZM999.2 339.282C998.8 339.282 998.4 339.082 998.2 338.782C997.8 338.182 997.9 337.382 998.4 336.982C1000.2 335.582 1002.1 334.382 1004.2 333.382C1004.8 333.082 1005.6 333.382 1005.9 333.982C1006.2 334.582 1005.9 335.382 1005.3 335.682C1003.4 336.582 1001.6 337.682 1000 338.982C999.8 339.182 999.5 339.282 999.2 339.282ZM1005.6 330.182C1005.1 330.182 1004.7 329.882 1004.4 329.482C1003.9 328.482 1003.2 327.582 1002 326.082C1001.7 325.682 1001.3 325.182 1000.9 324.682C1000.5 324.082 1000.6 323.282 1001.1 322.882C1001.7 322.482 1002.5 322.582 1002.9 323.082C1003.3 323.582 1003.7 324.082 1004 324.482C1005.3 326.082 1006.1 327.082 1006.7 328.382C1007 328.982 1006.7 329.782 1006.1 330.082C1006 330.182 1005.8 330.182 1005.6 330.182ZM1011.8 329.882C1011.5 329.882 1011.3 329.782 1011 329.682C1010.4 329.282 1010.3 328.482 1010.7 327.882C1011.9 326.182 1013 324.482 1014 322.682C1014.3 322.082 1015.1 321.782 1015.7 322.182C1016.3 322.482 1016.6 323.282 1016.2 323.882C1015.2 325.782 1014 327.682 1012.7 329.482C1012.5 329.682 1012.2 329.882 1011.8 329.882ZM1321.8 526.282C1320.4 526.282 1318.9 526.082 1317.3 525.582C1308.9 522.882 1300.7 512.882 1298.6 505.582C1298.2 504.182 1297.9 502.682 1297.7 501.182C1289.6 504.482 1282.2 511.782 1282.3 522.182C1282.3 523.682 1281.1 524.882 1279.6 524.982C1278.1 524.982 1276.9 523.782 1276.9 522.282C1276.8 515.582 1279.3 509.382 1283.9 504.282C1287.5 500.282 1292.3 497.182 1297.6 495.482C1298.1 488.982 1300.7 482.582 1305 478.082C1312 470.682 1323.2 469.182 1332.3 467.982L1333 467.882C1334.5 467.682 1335.9 468.782 1336.1 470.182C1336.3 471.682 1335.2 473.082 1333.8 473.282L1333.1 473.382C1324.5 474.582 1314.7 475.882 1309.1 481.782C1306.1 484.982 1304.1 489.482 1303.4 494.182C1311.3 493.182 1321.1 495.482 1327.7 499.882C1332 502.782 1334.8 507.682 1334.9 512.582C1335.1 516.882 1333.2 520.882 1329.7 523.682C1327.3 525.282 1324.7 526.282 1321.8 526.282ZM1303.1 499.582C1303.2 501.082 1303.5 502.582 1303.9 503.982C1305.6 509.782 1312.6 518.182 1319 520.282C1321.8 521.182 1324.1 520.782 1326.2 519.182C1328.9 517.082 1329.4 514.382 1329.3 512.582C1329.2 509.382 1327.3 506.182 1324.5 504.282C1318.8 500.382 1309.8 498.482 1303.1 499.582Z" fill="white"/>
</svg>
