<?xml version="1.0" encoding="utf-8"?>
<!-- Generator: Adobe Illustrator 25.2.0, SVG Export Plug-In . SVG Version: 6.00 Build 0)  -->
<svg version="1.1" id="Layer_1" xmlns="http://www.w3.org/2000/svg" xmlns:xlink="http://www.w3.org/1999/xlink" x="0px" y="0px"
	 viewBox="0 0 1395 745" style="enable-background:new 0 0 1395 745;" xml:space="preserve">
<style type="text/css">
	.st0{fill:#FB9D26;}
	.st1{fill:#FA8730;}
	.st2{fill:#FFFFFF;}
</style>
<path class="st0" d="M163.2,336.3c1.3-2.5,14.3-22,15.6-21.6c0.8,0.3,11.5,21.2,11.5,22.1C190.2,337.1,170,336.9,163.2,336.3z
	 M588.5,664.7c-0.1-0.1-6.7-8.2-9.7-12.5c-0.2-0.3-0.5-1-0.7-1.5c-0.2-0.4-0.4-0.7-0.7-0.8c-0.3-0.1-0.6,0-0.8,0.3l-10.5,14.7
	c-0.2,0.2-0.2,0.5-0.2,0.9c0,0.3,0.2,0.7,0.4,0.9c0.1,0.1,1.8,2.2,2.8,3.1c3.1,3.1,8.8,10.5,8.9,10.6c0.2,0.3,0.5,0.4,0.8,0.4
	c0.3,0,0.5-0.2,0.6-0.5c0,0,1.2-2.8,2-4.1c1.1-1.9,2.3-3.7,3.5-5.5c0.9-1.4,1.3-1.7,1.7-2c0.5-0.4,1-0.7,2.1-2.4
	C589,666,588.9,665.2,588.5,664.7z M719.6,132.8c0.6,0.2,1.3-0.2,1.4-0.8c0-0.1,0-0.2,0-0.4c0.2-1.4,2.8-12.6,4.5-19.5
	c0.1-0.3,0-0.6-0.2-0.8c-0.2-0.3-0.5-0.4-0.8-0.5c-0.2,0-4.7-1.1-5.7-1.3l-13.4-2.7c-0.3-0.1-0.7,0-0.9,0.2
	c-0.2,0.2-0.4,0.4-0.5,0.6v0.1c-0.8,6.5-2.2,13.1-3.9,19.4c-0.1,0.3,0,0.6,0.2,0.9c0.2,0.3,0.5,0.4,0.8,0.5
	C706.9,129.8,713.8,131.4,719.6,132.8z M720.6,131c-0.1-0.1-0.2-0.2-0.4-0.2C720.4,130.8,720.5,130.9,720.6,131z"/>
<path class="st1" d="M1094.6,687.7c2.5-1.2,24.8-8.6,25.6-7.5c0.5,0.7-3.9,23.8-4.6,24.5C1115.4,705,1099.6,692.4,1094.6,687.7z
	 M1218.4,182c0-0.1-4.9-9.4-7-14.2c-0.1-0.3-0.3-1.1-0.4-1.6c-0.1-0.4-0.3-0.7-0.6-0.9c-0.3-0.2-0.6-0.1-0.8,0.1l-13.1,12.3
	c-0.2,0.2-0.3,0.5-0.4,0.8c0,0.3,0,0.7,0.2,1c0.1,0.1,1.4,2.5,2.1,3.6c2.4,3.7,6.5,12.1,6.5,12.2c0.2,0.3,0.4,0.5,0.7,0.6
	c0.3,0,0.5-0.1,0.7-0.3c0,0,1.8-2.5,2.7-3.6c1.5-1.6,3-3.2,4.6-4.7c1.2-1.2,1.6-1.4,2.1-1.6c0.5-0.3,1.1-0.5,2.5-1.9
	C1218.6,183.3,1218.7,182.5,1218.4,182z"/>
<path class="st2" d="M691.7,425.6c-1.5,0-2.8-0.8-3.5-2.3c-0.8-1.9,0-4.2,1.9-5c3.7-1.6,6.8-4.7,8.4-8.5c1.6-3.8,1.7-8.1,0.2-11.9
	c-0.3-0.9-0.8-1.8-1.2-2.8c-0.8-1.7-1.8-3.7-2.3-5.9c-0.9-4.1-0.2-8.6,2-12.8c1.7-3.1,4.1-6.1,7.6-9.1c1.6-1.4,4-1.2,5.3,0.4
	c1.4,1.6,1.2,4-0.4,5.3c-2.8,2.5-4.7,4.7-5.9,7c-1.4,2.6-1.9,5.3-1.3,7.6c0.3,1.4,1,2.8,1.7,4.3c0.5,1.1,1,2.2,1.5,3.3
	c2.1,5.6,2,12-0.3,17.6c-2.3,5.5-6.8,10.1-12.3,12.5C692.7,425.5,692.2,425.6,691.7,425.6z M732.5,374.3c1.5-0.2,3,0.5,3.8,1.9
	c1.1,1.8,0.4,4.2-1.4,5.3c-3.7,2.1-6.4,5.6-7.6,9.5c-1.2,4-0.8,8.4,1.1,12.1c0.4,0.9,1,1.7,1.6,2.7c1,1.7,2.2,3.5,3,5.7
	c1.4,4,1.2,8.7-0.6,13.2c-1.4,3.4-3.5,6.6-6.8,10.1c-1.5,1.6-3.9,1.7-5.5,0.2c-1.6-1.4-1.7-3.9-0.2-5.4c2.6-2.8,4.3-5.3,5.3-7.7
	c1.1-2.8,1.3-5.6,0.5-7.9c-0.5-1.3-1.3-2.7-2.2-4.1c-0.6-1-1.3-2.1-1.9-3.2c-2.8-5.4-3.4-11.9-1.7-17.8c1.8-5.9,5.8-11,11.2-14
	C731.5,374.5,732,374.3,732.5,374.3z M253.4,543.8c5.7,6.8,9,15.7,9.4,22.4c0.5,7.3-2.4,16.4-10.2,20.4c-3,1.5-6.7,2.2-11.2,2.2
	c-7.9-0.1-12.9-2.9-15.4-8.4c-2.1-4.7-2.3-11.4,1.8-15.9c3.2-3.5,7.8-4.1,11.2-1.6c1.2,0.9,1.5,2.7,0.6,3.9s-2.7,1.5-3.9,0.6
	c-1.8-1.3-3.6,0.6-3.8,0.8c-2.4,2.6-2.1,7-0.8,9.9c1.5,3.4,4.7,5,10.4,5.1c3.6,0,6.4-0.5,8.6-1.6c4.7-2.4,7.7-8.6,7.2-15
	c-0.5-7.3-5.3-18.2-13-23.9c-4.2-3.1-8.5-4.1-12.9-3.1c-3.1,0.7-6.2,2.4-9.7,5c-6.6,5.1-11.7,11.8-14.2,19
	c-2.7,7.7-2.1,15.8,1.9,23.9c0.7,1.4,0.1,3.1-1.3,3.7c-1.4,0.7-3.1,0.1-3.7-1.3c-4.6-9.4-5.4-19.2-2.2-28.2
	c2.9-8.2,8.6-15.9,16.1-21.6c4.1-3.1,8-5.1,11.8-6c6-1.4,12,0,17.5,4C249.7,539.8,251.7,541.7,253.4,543.8z"/>
<path class="st2" d="M1005.8,113.9c3.9,0,7.1-3.2,7.1-7.1c0-3.9-3.2-7.1-7.1-7.1s-7.1,3.2-7.1,7.1
	C998.7,110.7,1001.9,113.9,1005.8,113.9z"/>
<path class="st2" d="M1016.4,92.1c3.9,0,7.1-3.2,7.1-7.1c0-3.9-3.2-7.1-7.1-7.1c-3.9,0-7.1,3.2-7.1,7.1
	C1009.3,88.9,1012.5,92.1,1016.4,92.1z"/>
<path class="st2" d="M1029.4,108.9c3.9,0,7.1-3.2,7.1-7.1c0-3.9-3.2-7.1-7.1-7.1c-3.9,0-7.1,3.2-7.1,7.1
	C1022.3,105.7,1025.5,108.9,1029.4,108.9z"/>
<path class="st2" d="M319.7,201.5l-0.4-2.6c-1.5-11.1-2.2-23.2-2.3-37c0-5.5,0-11.5,0.2-18.5c0-0.7,0-1.5,0-2.3c0-5,0-11.2,3.9-13.5
	c2.2-1.3,5.1-1,8.5,0.9c5.7,3.1,13.2,8.7,17.5,14.9c5.5,7.8,7.3,16.9,5,25.7c-3.2,12.3-15,31-30,32.1L319.7,201.5z M324.2,132.1
	c-0.2,0-0.3,0-0.4,0.1c-0.1,0.1-0.7,0.5-1.1,2.7c-0.3,1.9-0.3,4.2-0.3,6.3c0,0.8,0,1.7,0,2.4c-0.2,6.9-0.2,12.8-0.2,18.3
	c0.1,12.5,0.7,23.5,2,33.7c11-2.7,20.4-18.1,23-27.8c1.9-7.2,0.4-14.8-4.2-21.3c-3.9-5.5-10.9-10.6-15.9-13.3
	C325.7,132.4,324.7,132.1,324.2,132.1z M508.4,13.7c-0.1,0-0.2,0-0.4-0.1c-2.4-0.7-4-0.9-6.7-0.7c-0.7,0-1.3-0.5-1.4-1.2
	c0-0.7,0.5-1.3,1.2-1.4c3.1-0.2,4.9,0,7.6,0.8c0.7,0.2,1.1,0.9,0.9,1.6C509.4,13.3,508.9,13.7,508.4,13.7z M498.2,23.4
	c-0.5,0-1-0.3-1.2-0.8c-0.8-2.1-1.2-4.3-1.3-6.6c0-0.7,0.5-1.3,1.2-1.3c0.7,0,1.3,0.5,1.3,1.2c0.1,2,0.5,3.9,1.1,5.8
	c0.2,0.7-0.1,1.4-0.8,1.6C498.5,23.4,498.3,23.4,498.2,23.4z M486.2,17.3c-0.4,0-0.8-0.2-1-0.5c-0.4-0.6-0.3-1.4,0.2-1.8
	c1.8-1.4,3.7-2.6,5.8-3.6c0.6-0.3,1.4,0,1.7,0.6c0.3,0.6,0,1.4-0.6,1.7c-1.9,0.9-3.7,2-5.3,3.3C486.8,17.2,486.5,17.3,486.2,17.3z
	 M492.6,8.2c-0.5,0-0.9-0.3-1.2-0.7c-0.5-1-1.2-1.9-2.4-3.4c-0.3-0.4-0.7-0.9-1.1-1.4c-0.4-0.6-0.3-1.4,0.2-1.8
	c0.6-0.4,1.4-0.3,1.8,0.2c0.4,0.5,0.8,1,1.1,1.4c1.3,1.6,2.1,2.6,2.7,3.9c0.3,0.6,0,1.4-0.6,1.7C493,8.2,492.8,8.2,492.6,8.2z
	 M498.8,7.9c-0.3,0-0.5-0.1-0.8-0.2c-0.6-0.4-0.7-1.2-0.3-1.8c1.2-1.7,2.3-3.4,3.3-5.2c0.3-0.6,1.1-0.9,1.7-0.5
	c0.6,0.3,0.9,1.1,0.5,1.7c-1,1.9-2.2,3.8-3.5,5.6C499.5,7.7,499.2,7.9,498.8,7.9z M1021.4,335.7c-0.1,0-0.2,0-0.4-0.1
	c-2.4-0.7-4-0.9-6.7-0.7c-0.7,0-1.3-0.5-1.4-1.2c0-0.7,0.5-1.3,1.2-1.4c3.1-0.2,4.9,0,7.6,0.8c0.7,0.2,1.1,0.9,0.9,1.6
	C1022.4,335.3,1021.9,335.7,1021.4,335.7z M1011.2,345.4c-0.5,0-1-0.3-1.2-0.8c-0.8-2.1-1.2-4.3-1.3-6.6c0-0.7,0.5-1.3,1.2-1.3
	c0.7,0,1.3,0.5,1.3,1.2c0.1,2,0.5,3.9,1.1,5.8c0.2,0.7-0.1,1.4-0.8,1.6C1011.5,345.4,1011.3,345.4,1011.2,345.4z M999.2,339.3
	c-0.4,0-0.8-0.2-1-0.5c-0.4-0.6-0.3-1.4,0.2-1.8c1.8-1.4,3.7-2.6,5.8-3.6c0.6-0.3,1.4,0,1.7,0.6c0.3,0.6,0,1.4-0.6,1.7
	c-1.9,0.9-3.7,2-5.3,3.3C999.8,339.2,999.5,339.3,999.2,339.3z M1005.6,330.2c-0.5,0-0.9-0.3-1.2-0.7c-0.5-1-1.2-1.9-2.4-3.4
	c-0.3-0.4-0.7-0.9-1.1-1.4c-0.4-0.6-0.3-1.4,0.2-1.8c0.6-0.4,1.4-0.3,1.8,0.2c0.4,0.5,0.8,1,1.1,1.4c1.3,1.6,2.1,2.6,2.7,3.9
	c0.3,0.6,0,1.4-0.6,1.7C1006,330.2,1005.8,330.2,1005.6,330.2z M1011.8,329.9c-0.3,0-0.5-0.1-0.8-0.2c-0.6-0.4-0.7-1.2-0.3-1.8
	c1.2-1.7,2.3-3.4,3.3-5.2c0.3-0.6,1.1-0.9,1.7-0.5c0.6,0.3,0.9,1.1,0.5,1.7c-1,1.9-2.2,3.8-3.5,5.6
	C1012.5,329.7,1012.2,329.9,1011.8,329.9z M1321.8,526.3c-1.4,0-2.9-0.2-4.5-0.7c-8.4-2.7-16.6-12.7-18.7-20
	c-0.4-1.4-0.7-2.9-0.9-4.4c-8.1,3.3-15.5,10.6-15.4,21c0,1.5-1.2,2.7-2.7,2.8c-1.5,0-2.7-1.2-2.7-2.7c-0.1-6.7,2.4-12.9,7-18
	c3.6-4,8.4-7.1,13.7-8.8c0.5-6.5,3.1-12.9,7.4-17.4c7-7.4,18.2-8.9,27.3-10.1l0.7-0.1c1.5-0.2,2.9,0.9,3.1,2.3
	c0.2,1.5-0.9,2.9-2.3,3.1l-0.7,0.1c-8.6,1.2-18.4,2.5-24,8.4c-3,3.2-5,7.7-5.7,12.4c7.9-1,17.7,1.3,24.3,5.7
	c4.3,2.9,7.1,7.8,7.2,12.7c0.2,4.3-1.7,8.3-5.2,11.1C1327.3,525.3,1324.7,526.3,1321.8,526.3z M1303.1,499.6c0.1,1.5,0.4,3,0.8,4.4
	c1.7,5.8,8.7,14.2,15.1,16.3c2.8,0.9,5.1,0.5,7.2-1.1c2.7-2.1,3.2-4.8,3.1-6.6c-0.1-3.2-2-6.4-4.8-8.3
	C1318.8,500.4,1309.8,498.5,1303.1,499.6z"/>
</svg>
